<?xml version="1.0" encoding="UTF-8" standalone="no"?>
<svg
	height="517.64"
	width="741.93"
	version="1.1"
	id="svg1"
	xml:space="preserve"
	xmlns:xlink="http://www.w3.org/1999/xlink"
	xmlns="http://www.w3.org/2000/svg"
	xmlns:svg="http://www.w3.org/2000/svg">
	<g id="GroupInnerRing">
		<path id="InnerRing"
			style="fill:none;stroke:black;stroke-width:0.25"
			d="m 439.17,393.88 c -13.09,0.67 -24.84,-1.34 -36.1,-4.94 c -9.81,-2.94 -18.94,-8.33 -28.27,-15.23 c -6.76,-4.96 -15.15,-12.87 -21.07,-20.7 c -7.3,-10.17 -11.94,-21.95 -15.31,-33.81 c -3.32,-11.31 -3.45,-22.09 -2.62,-32.69 c 1.15,-23.35 15.23,-53.37 38.99,-70.58 c 8.38,-6.19 17.55,-11.19 28.59,-14.76 c 8.68,-3.1 20.82,-5.91 35.57,-5.14 c 9.79,0.9 21.69,2.75 34.19,7.66 c 10.63,5.04 20.36,10.79 28.25,17.96 c 11.1,9.75 18.34,22.07 22.35,30.68 c 33.6,75.63 -26.99,139.98 -84.57,141.55 z"
			/>
		<g id="Group_Inner_FirstStop">
			<circle
				style="fill:red"
				id="point-inner-1-1"
				cx="438.96"
				cy="393.84"
				r="2" />
			<circle
				style="fill:red"
				id="point-inner-1-2"
				cx="354.3"
				cy="352.87"
				r="2" />
			<circle
				style="fill:red"
				id="point-inner-1-3"
				cx="374.91"
				cy="215.74"
				r="2" />
			<circle
				style="fill:red"
				id="point-inner-1-4"
				cx="473.22"
				cy="203.8"
				r="2" />
		</g>
		<g id="Group_Inner_SecondStop">
			<circle
				style="fill:red"
				id="point-inner-2-1"
				cx="403.09"
				cy="388.59"
				r="2" />
			<circle
				style="fill:red"
				id="point-inner-2-2"
				cx="338.69"
				cy="319.42"
				r="2" />
			<circle
				style="fill:red"
				id="point-inner-2-3"
				cx="403.52"
				cy="201.32"
				r="2" />
			<circle
				style="fill:red"
				id="point-inner-2-4"
				cx="501.04"
				cy="220.55"
				r="2" />
		</g>
		<g id="Group_Inner_ThirdStop">
					<circle
				style="fill:red"
				id="point-inner-3-1"
				cx="374.67"
				cy="373.61"
				r="2" />
			<circle
				style="fill:red"
				id="point-inner-3-2"
				cx="336.06"
				cy="286.07"
				r="2" />
			<circle
				style="fill:red"
				id="point-inner-3-3"
				cx="438.91"
				cy="196.09"
				r="2" />
			<circle
				style="fill:red"
				id="point-inner-3-4"
				cx="523.46"
				cy="251.45"
				r="2" />
		</g>
	</g>
	<g id="GroupMiddleRing">
		<path id="MiddleRing"
			style="fill:none;stroke:black;stroke-width:0.25"
			d="m 410.01,421.8 c -12.8,-2.62 -23.88,-6.75 -35.38,-12.42 c -11.5,-5.67 -19.86,-12.5 -29.27,-19.78 c -15.15,-17.12 -28.16,-36.11 -31.05,-47.09 c -4.13,-12.46 -7.51,-22.4 -8.66,-38.21 c -0.81,-9.64 -0.57,-23.71 2.46,-35.71 c 5.26,-25.29 20.31,-50.87 38.57,-67.75 c 6.39,-7.5 16.77,-13.84 27.62,-20.29 c 11.26,-5.38 23.05,-9.85 35.94,-12.43 c 23.1,-3.66 45.49,-0.86 59.82,3.01 c 12.45,3.36 23.03,8.77 33.08,14.47 c 11.64,7.81 21.19,16.36 29.56,25.33 c 73.95,89.4 5.37,230.88 -122.69,210.87 z"
			/>
		<g id="Group_Middle_FIrstStop">
			<circle
				style="fill:red"
				id="point-middle-1-1"
				cx="409.34"
				cy="421.77"
				r="2" />
			<circle
				style="fill:red"
				id="point-middle-1-2"
				cx="314.42"
				cy="341.84"
				r="2" />
			<circle
				style="fill:red"
				id="point-middle-1-3"
				cx="346.86"
				cy="200.94"
				r="2" />
			<circle
				style="fill:red"
				id="point-middle-1-4"
				cx="469.52"
				cy="170.8"
				r="2" />
		</g>
		<g id="Group_Middle_SecondStop">
			<circle
				style="fill:red"
				id="point-middle-2-1"
				cx="374.58"
				cy="409.02"
				r="2" />
			<circle
				style="fill:red"
				id="point-middle-2-2"
				cx="305.26"
				cy="304.33"
				r="2" />
			<circle
				style="fill:red"
				id="point-middle-2-3"
				cx="375.36"
				cy="180.21"
				r="2" />
			<circle
				style="fill:red"
				id="point-middle-2-4"
				cx="502.88"
				cy="184.9"
				r="2" />
		</g>
		<g id="Group_Middle_ThirdStop">
			<circle
				style="fill:red"
				id="point-middle-3-1"
				cx="345.8"
				cy="389.38"
				r="2" />
			<circle
				style="fill:red"
				id="point-middle-3-2"
				cx="308.6"
				cy="268.48"
				r="2" />
			<circle
				style="fill:red"
				id="point-middle-3-3"
				cx="409.91"
				cy="168.28"
				r="2" />
			<circle
				style="fill:red"
				id="point-middle-3-4"
				cx="532.92"
				cy="211.33"
				r="2" />
		</g>
	</g>
	<g id="GroupOuterRing">
		<path id="OuterRing" 
			style="fill:none;stroke:black;stroke-width:0.25"
			d="m 373.88,442.33 c -11.4,-4.97 -24.9,-12.68 -35.64,-20.84 c -8.55,-6.49 -14.42,-12.88 -28.19,-27.64 c -13.77,-14.76 -28.86,-50.41 -32.33,-72.73 c -3.09,-19.85 -3.05,-31.35 -1.66,-42.88 c 1.39,-11.53 4.65,-25.62 9.71,-39.63 c 5.06,-14.01 15.68,-30.05 24.45,-42.54 c 8.35,-11.88 18.97,-20.6 28.67,-28.01 c 9.7,-7.42 19.8,-12.97 35.49,-20.33 c 20.37,-9.55 59.33,-14.36 80.94,-10.27 c 17.68,3.34 26.97,5.41 39.09,10.39 c 12.12,4.98 25.56,12.77 36.72,21.05 c 146.95,121.83 12.16,337.22 -157.25,273.43 z"
			/>
		<g id="Group_Outer_FirstStop">
			<circle
				style="fill:red"
				id="point-outer-1-1"
				cx="373.9"
				cy="442.38"
				r="2" />
			<circle
				style="fill:red"
				id="point-outer-1--2"
				cx="277.52"
				cy="320.94"
				r="2" />
			<circle
				style="fill:red"
				id="point-outer-1-3"
				cx="310.28"
				cy="196.23"
				r="2" />
			<circle
				style="fill:red"
				id="point-outer-1-4"
				cx="455.16"
				cy="137.51"
				r="2" />
		</g>
		<g id="Group_Outer_SecondStop">
			<circle
				style="fill:red"
				id="point-outer-2-1"
				cx="338.17"
				cy="421.71"
				r="2" />
			<circle
				style="fill:red"
				id="point-outer-2-2"
				cx="276.11"
				cy="278.21"
				r="2" />
			<circle
				style="fill:red"
				id="point-outer-2-3"
				cx="338.6"
				cy="168.24"
				r="2" />
			<circle
				style="fill:red"
				id="point-outer-2-4"
				cx="493.96"
				cy="147.69"
				r="2" />
		</g>
		<g id="Group_Outer_ThirdStop">
			<circle
				style="fill:red"
				id="point-outer-3-1"
				cx="309.77"
				cy="393.91"
				r="2" />
			<circle
				style="fill:red"
				id="point-outer-3-2"
				cx="285.56"
				cy="237.72"
				r="2" />
			<circle
				style="fill:red"
				id="point-outer-3-3"
				cx="374.24"
				cy="147.76"
				r="2" />
			<circle
				style="fill:red"
				id="point-outer-3-4"
				cx="530.93"
				cy="168.29"
				r="2" />
		</g>
	</g>
</svg>

